<?xml version="1.0" encoding="utf-8"?>
<!-- Generator: Adobe Illustrator 20.1.0, SVG Export Plug-In . SVG Version: 6.00 Build 0)  -->
<svg version="1.1" id="Layer_1" xmlns="http://www.w3.org/2000/svg" xmlns:xlink="http://www.w3.org/1999/xlink" x="0px" y="0px"
	 viewBox="0 0 210 60" style="enable-background:new 0 0 210 60;" xml:space="preserve">
<style type="text/css">
	.st0{fill:#FFFFFF;}
</style>
<g>
	<g>
		<path class="st0" d="M171.6,24.9c1.6,0.1,2.8,0.8,3.5,2.2c1.1,2.2,2.1,4.4,3.2,6.6c0.1,0.3,0.2,0.5,0.4,0.8
			c0.3,0.5,0.5,0.5,0.9,0.1c0.1-0.1,0.2-0.2,0.2-0.4c2.9-4.9,5.9-9.8,8.8-14.7c1.7-2.9,3.5-5.8,5.2-8.7c1.7-2.8,3.4-5.6,5-8.4
			c0.6-1,1.4-1.6,2.4-1.9c2.4-0.6,4.5,1,4.8,3.2c0.1,0.9,0,1.8-0.5,2.6c-2.7,4.5-5.4,9.1-8.2,13.6c-1.3,2.1-2.5,4.2-3.8,6.3
			c-2.7,4.5-5.4,9-8.1,13.6c-1,1.7-2,3.4-3.1,5.1c-0.2,0.3-0.3,0.7-0.5,1c-0.6,0.9-1.5,1.4-2.6,1.6c-1.6,0.3-3.3-0.6-4.1-2.1
			c-0.7-1.3-1.3-2.7-2-4.1c-0.5-1-1-2-1.5-3.1c-1-2-1.9-4-2.9-6c-0.3-0.5-0.5-1.1-0.8-1.6c-0.9-1.8-0.3-4.2,1.7-5.2
			C170.4,25,171,24.9,171.6,24.9z"/>
		<path class="st0" d="M151.9,46.5c0.3-0.1,0.6-0.1,0.8-0.2c1.1-0.2,2.2-0.5,3.2-0.9c1.1-0.5,2.1-1.3,2.9-2.3c0,0,0,0,0.1-0.1
			c0.1,0,0.1,0.1,0.2,0.2c0.9,1.4,2,2.7,3.2,3.8c1,0.9,2.1,1.7,3.4,2.4c2,1.1,4.1,1.8,6.4,2.2c1.1,0.2,2.2,0.2,3.3,0.2
			c2.1-0.1,4.2-0.5,6.1-1.3c1.6-0.7,3.1-1.5,4.5-2.6c1.9-1.5,3.4-3.3,4.6-5.3c1.1-1.8,1.8-3.8,2.2-5.9c0.1-0.7,0.2-1.4,0.3-2.1
			c0-0.5,0-1.1,0-1.6c0-0.8-0.1-1.6-0.2-2.4c0-0.2,0-0.3,0.1-0.4c1.7-2.8,3.4-5.6,5-8.4c0,0,0.1-0.1,0.1-0.1
			c3.1,5.6,4.5,15-0.1,23.8c-2.3,4.4-5.6,7.9-9.8,10.5c-4.3,2.6-8.9,3.8-13.9,3.7c-5.5-0.1-10.5-1.7-15-5
			C156.2,52.4,153.8,49.7,151.9,46.5z"/>
		<path class="st0" d="M187,19.7c-0.6-0.5-1.1-0.9-1.7-1.3c-1.4-1-2.9-1.8-4.5-2.4c-1.3-0.5-2.7-0.8-4.1-1c-1.2-0.1-2.3-0.2-3.5-0.1
			c-2.6,0.2-5,0.9-7.2,2.1c-1.4,0.7-2.7,1.7-3.9,2.7c-1.2,1.1-2.3,2.4-3.2,3.8c-0.1,0.2-0.2,0.2-0.4,0.2c-1.5,0-3.1,0-4.6,0
			c-1.1,0-2.2,0-3.3,0c-0.1,0-0.2,0-0.3,0c-0.1-0.1,0-0.2,0-0.3c1-2.4,2.3-4.6,3.9-6.6c0.8-1,1.7-2,2.7-2.9c1.6-1.4,3.3-2.7,5.2-3.7
			c2.2-1.2,4.5-2.1,7-2.6c1-0.2,2-0.4,3-0.5c0.9-0.1,1.7-0.1,2.6-0.1c2.3,0,4.7,0.3,6.9,0.9c3.4,0.9,6.4,2.5,9.2,4.6
			c0.5,0.4,0.4,0.2,0.1,0.7c-1.2,2-2.5,4.1-3.7,6.1C187.1,19.5,187.1,19.6,187,19.7z"/>
		<path class="st0" d="M53.5,25.7c0.5,0,1.1,0,1.6,0c0.4,0,0.5,0.1,0.5,0.5c0.1,1.1,0.2,2.2,0.3,3.3c0.1,1.2,0.3,2.3,0.4,3.5
			c0.1,1,0.2,1.9,0.3,2.9c0.1,1.3,0.3,2.6,0.4,3.9c0,0.1,0,0.1,0,0.2c0,0.1,0.1,0.1,0.1,0.1c0.1,0,0.1,0,0.1-0.1
			c0-0.1,0.1-0.1,0.1-0.2c0.5-1.8,0.9-3.6,1.4-5.4c0.1-0.5,0.3-1.1,0.4-1.6c0.1-0.4,0.4-0.8,0.8-1c0.2-0.1,0.5-0.1,0.7-0.1
			c0.9,0,1.7,0,2.6,0c0.7,0,1.2,0.4,1.5,1.1c0.2,0.6,0.3,1.2,0.5,1.8c0.5,1.8,0.9,3.5,1.4,5.3c0,0.1,0,0.2,0.1,0.3
			c0,0.1,0.1,0.1,0.1,0.1c0.1,0,0.1-0.1,0.1-0.1c0-0.1,0.1-0.2,0.1-0.3c0.1-1.2,0.2-2.4,0.4-3.6c0.1-1.4,0.3-2.8,0.5-4.1
			c0.1-1.2,0.2-2.4,0.4-3.6c0.1-0.7,0.1-1.3,0.2-2c0.1-0.5,0.2-0.6,0.6-0.6c1,0,2.1,0,3.1,0c0,0,0.1,0,0.1,0c0.3,0,0.4,0.1,0.4,0.4
			c-0.1,0.5-0.1,1-0.2,1.5c-0.1,0.9-0.3,1.8-0.4,2.7c-0.2,1.1-0.3,2.1-0.5,3.2c-0.1,0.9-0.2,1.7-0.4,2.6c-0.1,1-0.3,2.1-0.4,3.1
			c-0.1,0.9-0.3,1.8-0.4,2.7c0,0.3-0.1,0.7-0.2,1c-0.3,1.1-0.8,1.5-1.8,1.6c-0.7,0.1-1.5,0.1-2.2,0c-0.9-0.1-1.6-0.6-1.9-1.5
			c-0.3-1-0.6-2.1-0.8-3.1c-0.4-1.5-0.8-3-1.2-4.5c0,0,0-0.1,0-0.1c0-0.2-0.1-0.2-0.3-0.2c-0.2,0-0.2,0.1-0.2,0.2
			c-0.2,0.6-0.3,1.3-0.5,1.9c-0.5,1.9-1,3.8-1.5,5.7c-0.3,1-1,1.6-2,1.6c-0.8,0-1.6,0.1-2.4-0.1c-0.9-0.1-1.3-0.6-1.5-1.5
			c-0.2-0.7-0.2-1.5-0.3-2.3c-0.2-1.2-0.4-2.5-0.5-3.7c-0.1-1-0.3-2.1-0.4-3.1c-0.2-1.2-0.3-2.4-0.5-3.7c-0.1-0.9-0.3-1.8-0.4-2.7
			c-0.1-0.4-0.1-0.8-0.2-1.1c0-0.1,0-0.2,0-0.3c0-0.3,0.1-0.4,0.4-0.4C52.4,25.7,52.9,25.7,53.5,25.7z"/>
		<path class="st0" d="M126.4,35.4c0-2.7,0-5.5,0-8.2c0-0.2,0-0.4,0.1-0.6c0.1-0.3,0.3-0.6,0.6-0.7c0.3-0.1,0.7-0.2,1-0.2
			c0.6-0.1,1.3-0.1,1.9-0.2c1-0.1,2-0.1,3.1-0.1c1.4,0,2.7,0.2,4,0.7c1.8,0.8,2.9,2.1,3.1,4.1c0.1,0.6,0.1,1.3,0,1.9
			c-0.2,1.9-1,3.4-2.8,4.3c-0.4,0.2-0.4,0.2-0.2,0.6c0.7,1.4,1.5,2.7,2.2,4.1c0.5,0.8,0.9,1.7,1.4,2.5c0,0.1,0.1,0.1,0.1,0.2
			c0.1,0.3,0,0.4-0.3,0.4c-0.2,0-0.5,0-0.7,0c-1,0-2,0-3,0c-0.3,0-0.4-0.1-0.6-0.3c-0.8-1.6-1.7-3.2-2.5-4.8
			c-0.3-0.5-0.6-1.1-0.9-1.6c-0.1-0.1-0.1-0.2-0.3-0.2c-0.3,0-0.5,0-0.8,0c-0.3,0-0.6,0-0.9,0c-0.1,0-0.2,0.1-0.2,0.2
			c0,0.1,0,0.2,0,0.2c0,1.9,0,3.7,0,5.6c0,0.1,0,0.2,0,0.3c0,0.4-0.2,0.6-0.6,0.6c-1,0-2,0-3,0c-0.4,0-0.7-0.2-0.7-0.7
			C126.4,40.9,126.4,38.2,126.4,35.4z M130.7,31.5c0,0.7,0,1.5,0,2.2c0,0.2,0,0.3,0.2,0.3c0.7,0,1.4,0,2.1,0c0.6,0,1.1-0.1,1.7-0.3
			c0.7-0.2,1.1-0.7,1.2-1.4c0.1-0.4,0.1-0.9,0.1-1.3c-0.1-0.8-0.4-1.3-1.2-1.7c-0.6-0.3-1.3-0.3-1.9-0.4c-0.6,0-1.3,0.1-1.9,0.1
			c-0.3,0-0.3,0-0.3,0.3C130.7,30.1,130.7,30.8,130.7,31.5z"/>
		<path class="st0" d="M29,36.7c0.2,0.5,0.5,1,0.8,1.4c0.7,1.4,1.5,2.8,2.2,4.2c0.2,0.4,0.4,0.8,0.7,1.2c0,0.1,0.1,0.1,0.1,0.2
			c0.2,0.3,0.1,0.6-0.4,0.6c-1.2,0-2.4,0-3.6,0c-0.3,0-0.4-0.1-0.6-0.3c-0.7-1.3-1.3-2.5-2-3.8c-0.4-0.8-0.9-1.6-1.3-2.4
			c0-0.1-0.1-0.2-0.2-0.3c0-0.1-0.1-0.1-0.1-0.1c-0.6,0.1-1.1-0.1-1.7,0c-0.3,0-0.3,0-0.3,0.3c0,1.9,0,3.8,0,5.8c0,0.1,0,0.2,0,0.3
			c0,0.3-0.2,0.6-0.6,0.6c-1,0-2.1,0-3.1,0c-0.4,0-0.6-0.2-0.6-0.6c0-0.1,0-0.2,0-0.2c0-5.4,0-10.9,0-16.3c0-0.2,0-0.5,0.1-0.7
			c0-0.3,0.3-0.6,0.6-0.7c0.3-0.1,0.7-0.2,1-0.2c0.6-0.1,1.3-0.1,1.9-0.2c1-0.1,2-0.1,3.1-0.1c1.4,0,2.7,0.2,4,0.7
			c1.8,0.8,2.9,2.1,3.2,4.1c0.1,1,0.1,2-0.1,3.1c-0.4,1.5-1.3,2.6-2.7,3.2C29.2,36.6,29.1,36.6,29,36.7z M22.7,31.6
			c0,0.2,0,0.4,0,0.6c0,0.5,0,1.1,0,1.6c0,0.2,0,0.2,0.2,0.3c0.8,0,1.6,0,2.5,0c0.4,0,0.8-0.1,1.2-0.2c0.7-0.2,1.2-0.7,1.3-1.5
			c0.1-0.4,0.1-0.8,0-1.2c-0.1-0.8-0.5-1.4-1.3-1.7c-0.6-0.2-1.2-0.3-1.8-0.3c-0.6,0-1.2,0.1-1.8,0.1c-0.4,0-0.4,0-0.4,0.4
			C22.7,30.2,22.7,30.9,22.7,31.6z"/>
		<path class="st0" d="M74.9,35c0-2.7,0-5.4,0-8.1c0-0.1,0-0.2,0-0.3c0.1-0.5,0.2-0.7,0.8-0.8c0.9-0.1,1.8-0.2,2.7-0.3
			c1-0.1,1.9-0.1,2.9-0.1c1.4,0,2.7,0.2,4,0.8c1.8,0.9,3,2.3,3.5,4.2c0.2,0.7,0.3,1.5,0.3,2.2c0.1,1.4,0.1,2.8,0,4.2
			c0,1.3-0.2,2.5-0.8,3.7c-0.5,1.2-1.3,2.1-2.4,2.8c-1.1,0.6-2.2,1-3.5,1.1c-1,0.1-2.1,0.1-3.1,0c-1.2-0.1-2.4-0.1-3.6-0.3
			c-0.1,0-0.2,0-0.3-0.1c-0.2-0.1-0.4-0.3-0.5-0.6c0-0.2,0-0.3,0-0.5C74.9,40.4,74.9,37.7,74.9,35z M84.8,35
			C84.8,35,84.8,35,84.8,35c0-0.6,0-1.1,0-1.7c0-0.6-0.1-1.3-0.2-1.9c-0.3-1.1-1-1.9-2.1-2.2c-0.4-0.1-0.7-0.1-1.1-0.2
			c-0.6,0-1.3,0-1.9,0c-0.1,0-0.2,0.1-0.2,0.2c0,0.1,0,0.1,0,0.2c0,3.7,0,7.4,0,11.1c0,0.1,0,0.2,0,0.2c0,0.1,0.1,0.2,0.2,0.2
			c0.2,0,0.4,0,0.5,0c0.7,0,1.5,0.1,2.2-0.1c1-0.2,1.8-0.7,2.2-1.6c0.3-0.6,0.4-1.3,0.4-2C84.8,36.5,84.8,35.8,84.8,35z"/>
		<path class="st0" d="M34.7,35.2c0-0.8,0-1.4,0-2.1c0-1.3,0.2-2.6,0.8-3.8c0.7-1.7,2-2.8,3.7-3.4c0.7-0.3,1.5-0.4,2.3-0.4
			c1-0.1,2,0,3,0.2c1,0.2,2,0.7,2.8,1.4c1,0.8,1.6,1.9,2,3.1c0.3,0.8,0.4,1.7,0.4,2.6c0.1,1.4,0.1,2.7,0,4.1c0,1.4-0.2,2.7-0.8,4
			c-0.6,1.3-1.6,2.3-2.9,3c-1.1,0.5-2.3,0.7-3.5,0.8c-1.1,0-2.2-0.1-3.2-0.5c-1.8-0.6-3.1-1.8-3.8-3.6c-0.4-0.9-0.5-1.9-0.6-2.9
			C34.6,36.8,34.7,35.9,34.7,35.2z M45.3,34.9c0-0.7,0-1.5,0-2.3c-0.1-0.5-0.1-1.1-0.3-1.6c-0.3-0.9-1-1.5-1.9-1.7
			c-0.5-0.1-1-0.1-1.6,0c-0.9,0.1-1.6,0.6-2,1.5c-0.3,0.8-0.4,1.6-0.5,2.4c0,1.5-0.1,2.9,0,4.4c0,0.6,0.2,1.2,0.4,1.8
			c0.3,0.8,0.9,1.2,1.7,1.5c0.4,0.1,0.8,0.1,1.2,0.1c1.3,0,2.1-0.7,2.5-1.7c0.3-0.7,0.4-1.5,0.4-2.2C45.3,36.3,45.3,35.6,45.3,34.9z
			"/>
		<path class="st0" d="M143.6,32.2c0-1.9,0-3.8,0-5.8c0-0.1,0-0.1,0-0.2c0-0.4,0.2-0.6,0.6-0.6c0.1,0,0.2,0,0.3,0c0.9,0,1.8,0,2.7,0
			c0.5,0,0.7,0.1,0.7,0.7c0,3.7,0,7.4,0,11.1c0,0.6,0.1,1.3,0.2,1.9c0.3,0.9,0.8,1.4,1.7,1.6c0.7,0.1,1.4,0.1,2.2,0
			c0.8-0.2,1.3-0.7,1.6-1.5c0.2-0.5,0.2-1,0.2-1.5c0-3.8,0-7.6,0-11.4c0-0.1,0-0.3,0-0.4c0.1-0.2,0.2-0.3,0.4-0.3c1.1,0,2.2,0,3.3,0
			c0.3,0,0.5,0.2,0.5,0.5c0,0.1,0,0.1,0,0.2c0,3.9,0,7.7,0,11.6c0,1.1-0.2,2.2-0.6,3.2c-0.6,1.4-1.6,2.4-3.1,3
			c-0.7,0.3-1.4,0.4-2.2,0.5c-0.8,0.1-1.6,0.1-2.4,0c-1.1-0.1-2.2-0.3-3.2-0.8c-1.2-0.6-2-1.6-2.5-2.9c-0.3-0.7-0.4-1.5-0.5-2.2
			c-0.1-0.6-0.1-1.1-0.1-1.7C143.6,35.4,143.6,33.8,143.6,32.2z"/>
		<path class="st0" d="M122.9,32.3c0,1.9,0,3.7,0,5.6c0,1.2-0.2,2.4-0.7,3.5c-0.7,1.5-2,2.5-3.6,2.9c-1.2,0.3-2.4,0.4-3.7,0.3
			c-1.1,0-2.1-0.2-3.1-0.7c-1.3-0.6-2.2-1.5-2.8-2.8c-0.4-0.9-0.6-1.9-0.6-2.9c-0.1-0.8,0-1.5,0-2.3c0-3.2,0-6.4,0-9.5
			c0-0.1,0-0.2,0-0.3c0-0.3,0.2-0.4,0.5-0.4c1.1,0,2.2,0,3.4,0c0.3,0,0.4,0.2,0.5,0.5c0,0.1,0,0.2,0,0.3c0,3.7,0,7.4,0,11.1
			c0,0.6,0,1.1,0.2,1.7c0.3,1,0.9,1.6,1.9,1.7c0.5,0.1,1.1,0.1,1.6,0c1.2-0.2,1.8-0.8,2-1.9c0.1-0.5,0.1-0.9,0.1-1.4
			c0-3.7,0-7.4,0-11.1c0-0.1,0-0.2,0-0.3c0-0.4,0.2-0.5,0.5-0.5c1.1,0,2.1,0,3.2,0c0.4,0,0.5,0.2,0.6,0.6
			C122.9,28.2,122.9,30.3,122.9,32.3z"/>
		<path class="st0" d="M105,39.3c0,1.4,0,2.7,0,4.1c0,0.4-0.1,0.6-0.5,0.7c-1,0.2-2.1,0.3-3.1,0.4c-1,0.1-2.1,0.1-3.1,0.1
			c-1.6-0.1-3-0.7-4.2-1.7c-1.1-0.9-1.7-2.1-2-3.5c-0.2-0.7-0.3-1.3-0.3-2c-0.1-1.4-0.1-2.9,0-4.3c0-1.2,0.2-2.4,0.7-3.5
			c0.7-1.8,2-3,3.8-3.7c0.8-0.3,1.6-0.4,2.4-0.5c0.4,0,0.8-0.1,1.2,0c1.2,0.1,2.5,0.1,3.7,0.4c0.4,0.1,0.8,0.2,1.2,0.2
			c0.3,0.1,0.4,0.2,0.4,0.5c0,0.8,0,1.6,0,2.5c0,0.3-0.1,0.4-0.4,0.4c-0.5,0-1,0-1.6-0.1c-0.2,0-0.4,0-0.6,0
			c-1.1-0.1-2.2-0.1-3.4-0.1c-0.6,0-1.2,0.1-1.7,0.5c-0.6,0.4-0.9,1-1.1,1.6c-0.2,0.6-0.2,1.2-0.2,1.8c0,1.3,0,2.7,0,4
			c0,0.8,0.1,1.7,0.5,2.4c0.4,0.8,1.1,1.3,2,1.4c0.6,0.1,1.1-0.1,1.7,0c0.1,0,0.2,0,0.2,0c0.3,0,0.3,0,0.3-0.4c0-1.8,0-3.6,0-5.3
			c0-0.2,0-0.3,0.1-0.5c0.1-0.1,0.3-0.2,0.5-0.2c1,0,1.9,0,2.9,0c0.4,0,0.6,0.2,0.6,0.6C105,36.6,105,37.9,105,39.3z"/>
		<path class="st0" d="M8.2,35c0,0.8,0,1.6,0,2.4c0,0.6,0.1,1.2,0.4,1.8c0.4,0.9,1.1,1.5,2.1,1.6c0.6,0.1,1.2,0,1.8,0
			c0.6,0,1.2-0.1,1.7-0.1c0.3,0,0.5,0,0.8-0.1c0.4,0,0.6,0.1,0.6,0.5c0,0.8,0,1.6,0,2.4c0,0.3-0.1,0.5-0.5,0.6
			c-0.4,0.1-0.9,0.2-1.4,0.3c-1.1,0.1-2.2,0.2-3.2,0.1c-1.6-0.1-3.1-0.6-4.3-1.7c-0.8-0.7-1.4-1.6-1.8-2.6c-0.4-1-0.5-2.1-0.6-3.1
			c-0.1-1.2,0-2.4,0-3.7c0-1.2,0.1-2.4,0.5-3.5c0.8-2.3,2.4-3.7,4.7-4.3c0.5-0.1,1.1-0.2,1.6-0.2c1.4-0.1,2.8,0,4.2,0.3
			c0.7,0.2,0.8,0.2,0.8,1c0,0.6,0,1.2,0,1.9c0,0.1,0,0.2,0,0.3c0,0.3-0.2,0.4-0.5,0.4c-0.4,0-0.8,0-1.2-0.1c-0.6,0-1.1-0.1-1.7-0.1
			c-0.3,0-0.6-0.1-0.9,0c-0.4,0-0.7,0.1-1,0.2c-0.9,0.3-1.5,1-1.8,1.9c-0.2,0.6-0.3,1.3-0.3,2C8.2,33.7,8.2,34.4,8.2,35
			C8.2,35,8.2,35,8.2,35z"/>
		<path class="st0" d="M80.3,51.9c0.2,0.5,0.3,0.9,0.1,1.4c-0.2,0.6-0.6,1-1.2,1.2c-0.7,0.2-1.3,0.2-2,0.1c-0.2-0.1-0.3,0-0.3,0.1
			c0,0.2,0,0.3,0.2,0.3c0.5,0.1,1.1,0.2,1.6,0.4c0.5,0.1,0.9,0.2,1.3,0.4c0.4,0.2,0.6,0.5,0.6,1c0.1,0.9-0.4,1.4-1.2,1.6
			c-1,0.3-2,0.3-3-0.1c-0.5-0.2-0.8-0.5-0.9-1c-0.1-0.5,0-1,0.4-1.4c0,0,0.1-0.1,0.1-0.1c0,0,0,0,0,0c-0.2-0.2-0.3-0.3-0.4-0.6
			c-0.1-0.4,0-0.8,0.3-1.1c0.1-0.1,0.1-0.2,0-0.2c-0.5-0.5-0.5-1.7,0-2.3c0.2-0.3,0.5-0.4,0.9-0.5c0.3-0.1,0.7-0.2,1-0.2
			c0.9,0,1.7,0,2.6,0c0.4,0,0.4,0.1,0.4,0.4c0,0.1,0,0.1,0,0.2c0,0.3,0,0.3-0.3,0.5C80.4,51.8,80.4,51.8,80.3,51.9z M78,51.9
			c-0.1,0-0.2,0-0.3,0c-0.5,0.1-0.6,0.5-0.6,0.9c0,0.2,0.1,0.5,0.4,0.6c0.4,0.1,0.7,0.1,1.1,0c0.2-0.1,0.3-0.2,0.3-0.4
			c0.1-0.8-0.1-1-0.8-1.1C78.1,51.9,78.1,51.9,78,51.9z M78,57.4c0.1,0,0.2,0,0.3,0c0.1,0,0.2,0,0.3-0.1c0.3-0.1,0.4-0.2,0.4-0.4
			c0-0.3,0-0.3-0.3-0.5c-0.4-0.2-0.9-0.2-1.4-0.3c-0.1,0-0.2,0-0.2,0.1C77,56.4,77,56.6,77,56.8c0,0.3,0.1,0.5,0.4,0.5
			C77.6,57.4,77.8,57.4,78,57.4z"/>
		<path class="st0" d="M25.6,53.1c-0.1,0.6-0.3,1.1-0.4,1.6c-0.1,0.4-0.2,0.7-0.3,1.1c-0.1,0.4-0.4,0.6-0.9,0.6c-0.2,0-0.4,0-0.6,0
			c-0.5,0-0.7-0.2-0.8-0.7c-0.2-0.8-0.3-1.7-0.5-2.5c-0.1-0.7-0.3-1.4-0.4-2.1c0,0,0-0.1,0-0.1c0-0.3,0-0.3,0.3-0.3c0.3,0,0.6,0,1,0
			c0.2,0,0.3,0,0.3,0.2c0.1,0.7,0.2,1.4,0.3,2.1c0.1,0.5,0.2,1.1,0.3,1.6c0,0.1,0,0.1,0.1,0.2c0.1-0.1,0.1-0.2,0.1-0.3
			c0.2-0.8,0.4-1.6,0.6-2.4c0.1-0.3,0.2-0.5,0.6-0.5c0.3,0,0.6,0,0.9,0c0.3,0,0.5,0.2,0.5,0.5c0.2,0.7,0.4,1.5,0.6,2.2
			c0,0.2,0,0.4,0.2,0.5c0.1-0.3,0.1-0.6,0.2-0.9c0.2-0.9,0.3-1.9,0.4-2.8c0.1-0.4,0-0.3,0.4-0.3c0.3,0,0.6,0,0.9,0
			c0.3,0,0.3,0,0.2,0.3c-0.2,0.9-0.3,1.8-0.5,2.7c-0.1,0.7-0.3,1.3-0.4,2c-0.1,0.5-0.3,0.7-0.9,0.7c-0.2,0-0.4,0-0.6,0
			c-0.4,0-0.7-0.2-0.8-0.6c-0.2-0.6-0.3-1.2-0.5-1.8c-0.1-0.2-0.1-0.4-0.2-0.7C25.8,53.3,25.8,53.2,25.6,53.1z"/>
		<path class="st0" d="M103.7,52.5c0-1.1,0-2.2,0-3.3c0-0.4,0-0.4,0.4-0.4c0.3,0,0.6,0,0.9,0c0.3,0,0.3,0,0.3,0.3c0,0.4,0,0.9,0,1.3
			c0,0.2,0,0.3,0.3,0.2c0.5,0,0.9-0.1,1.4,0.1c0.9,0.2,1.5,0.9,1.6,1.8c0.1,0.7,0.1,1.4,0,2.1c-0.2,1.1-1,1.8-2.1,1.9
			c-0.8,0.1-1.7-0.1-2.5-0.2c-0.3-0.1-0.3-0.1-0.3-0.4C103.7,54.8,103.7,53.6,103.7,52.5z M105.3,53.6c0,0.4,0,0.9,0,1.3
			c0,0.2,0,0.3,0.2,0.3c0.2,0,0.4,0,0.6,0c0.6,0,0.8-0.4,0.9-0.8c0.1-0.4,0.1-0.9,0-1.3c0-0.3,0-0.5-0.2-0.8
			c-0.1-0.2-0.3-0.4-0.5-0.4c-0.3,0-0.5,0-0.8,0c-0.2,0-0.2,0-0.2,0.3C105.3,52.7,105.3,53.2,105.3,53.6z"/>
		<path class="st0" d="M35.8,52.5c0,1.1,0,2.2,0,3.3c0,0.4,0,0.4-0.4,0.5c-0.8,0.2-1.6,0.3-2.4,0.2c-1.2-0.1-2-0.9-2.1-2.1
			c-0.1-0.6-0.1-1.2,0-1.7c0.1-1.2,0.9-1.9,2.1-2c0.3,0,0.6,0,0.9,0c0.3,0,0.3,0,0.3-0.2c0-0.4,0-0.9,0-1.3c0-0.3,0-0.4,0.4-0.4
			c0.3,0,0.6,0,0.9,0c0.3,0,0.4,0.1,0.4,0.4c0,0.6,0,1.2,0,1.7C35.8,51.5,35.8,52,35.8,52.5z M34.2,53.6c0-0.4,0-0.9,0-1.3
			c0-0.3,0-0.3-0.3-0.3c-0.2,0-0.3,0-0.5,0c-0.5,0-0.8,0.3-0.9,0.8c-0.1,0.5-0.1,1.1,0,1.6c0.1,0.5,0.3,0.8,0.9,0.8
			c0.2,0,0.4,0,0.6,0c0.2,0,0.2-0.1,0.2-0.3C34.2,54.5,34.2,54.1,34.2,53.6z"/>
		<path class="st0" d="M127.3,51.1c0,0,0.1,0,0.1-0.1c0.6-0.4,1.2-0.5,1.9-0.4c0.5,0.1,0.9,0.4,1.1,0.8c0.2,0.4,0.2,0.8,0.2,1.3
			c0,1.1,0,2.1,0,3.2c0,0.4,0,0.4-0.4,0.4c-0.3,0-0.6,0-0.9,0c-0.3,0-0.3,0-0.3-0.3c0-1,0-2,0-2.9c0-0.2,0-0.5-0.1-0.7
			c0-0.2-0.2-0.4-0.4-0.4c-0.4-0.1-0.8,0-1.1,0.2c-0.1,0-0.1,0.1-0.1,0.2c0,0.1,0,0.2,0,0.3c0,1.1,0,2.1,0,3.2c0,0.1,0,0.2,0,0.3
			c0,0.1-0.1,0.2-0.3,0.2c-0.3,0-0.7,0-1,0c-0.2,0-0.3-0.1-0.3-0.3c0,0,0-0.1,0-0.1c0-1.6,0-3.2,0-4.8c0-0.1,0-0.1,0-0.2
			c0-0.1,0.1-0.2,0.2-0.2c0.3,0,0.7,0,1,0c0.1,0,0.2,0.1,0.2,0.2C127.3,51,127.2,51.1,127.3,51.1z"/>
		<path class="st0" d="M52.8,56c-0.4,0.2-0.7,0.4-1.2,0.5c-0.5,0.1-1,0.1-1.4-0.2c-0.5-0.3-0.7-0.8-0.8-1.4c-0.1-0.5,0-1,0-1.5
			c0-0.7,0-1.5,0-2.2c0-0.4,0-0.4,0.4-0.4c0.3,0,0.5,0,0.8,0c0.4,0,0.4,0,0.4,0.4c0,0.9,0,1.9,0,2.8c0,0.2,0,0.5,0.1,0.7
			c0,0.3,0.2,0.5,0.5,0.5c0.4,0,0.7-0.1,1-0.2c0.1-0.1,0.1-0.2,0.1-0.3c0-0.5,0-1.1,0-1.6c0-0.6,0-1.2,0-1.8c0-0.1,0-0.2,0-0.3
			c0-0.1,0.1-0.2,0.2-0.2c0.4,0,0.7,0,1.1,0c0.2,0,0.2,0.1,0.3,0.3c0,0.1,0,0.1,0,0.2c0,1.6,0,3.2,0,4.8c0,0.1,0,0.1,0,0.2
			c0,0.2-0.1,0.3-0.3,0.3c-0.3,0-0.7,0-1,0C52.9,56.4,52.8,56.4,52.8,56z"/>
		<path class="st0" d="M113.6,56c-0.4,0.3-0.7,0.4-1.2,0.5c-0.4,0.1-0.9,0.1-1.3-0.1c-0.3-0.1-0.6-0.4-0.7-0.7
			c-0.2-0.5-0.2-1-0.2-1.4c0-1,0-2,0-3c0-0.1,0-0.2,0-0.2c0-0.1,0.1-0.2,0.3-0.2c0.4,0,0.7,0,1.1,0c0.2,0,0.2,0.1,0.3,0.2
			c0,0.1,0,0.2,0,0.2c0,1,0,2,0,3c0,0.1,0,0.1,0,0.2c0,0.7,0.3,0.8,0.9,0.8c0.1,0,0.2,0,0.2-0.1c0.5-0.2,0.6-0.2,0.6-0.8
			c0-1.1,0-2.1,0-3.2c0-0.1,0-0.2,0-0.2c0-0.1,0.1-0.2,0.2-0.2c0.4,0,0.8,0,1.2,0c0.1,0,0.2,0.1,0.2,0.2c0,0.1,0,0.1,0,0.2
			c0,1.6,0,3.3,0,4.9c0,0,0,0.1,0,0.1c0,0.2-0.1,0.3-0.3,0.3c-0.3,0-0.6,0-0.9,0c-0.3,0-0.3,0-0.3-0.3
			C113.6,56.1,113.6,56.1,113.6,56z"/>
		<path class="st0" d="M70.5,51.2c0.5-0.4,1-0.5,1.6-0.5c0.7-0.1,1.4,0.4,1.6,1.1c0.1,0.3,0.1,0.6,0.1,0.9c0,1.1,0,2.3,0,3.4
			c0,0.4,0,0.4-0.4,0.4c-0.3,0-0.6,0-0.9,0c-0.2,0-0.3-0.1-0.3-0.3c0-0.1,0-0.3,0-0.4c0-0.9,0-1.9,0-2.8c0-0.1,0-0.1,0-0.2
			c0-0.9-0.4-0.9-1.1-0.8c-0.1,0-0.1,0-0.2,0.1c-0.5,0.2-0.5,0.2-0.5,0.7c0,1.1,0,2.2,0,3.3c0,0.4,0,0.4-0.4,0.4c-0.3,0-0.5,0-0.8,0
			c-0.3,0-0.4,0-0.4-0.4c0-1.6,0-3.1,0-4.7c0-0.1,0-0.3,0-0.4c0-0.2,0.1-0.2,0.3-0.2c0.3,0,0.5,0,0.8,0
			C70.5,50.8,70.5,50.8,70.5,51.2z"/>
		<path class="st0" d="M135.5,54.1c-0.5,0-1,0-1.4,0c-0.2,0-0.2,0-0.2,0.2c0,0.5,0.4,0.9,0.9,0.9c0.6,0,1.2,0,1.8-0.1
			c0.1,0,0.1,0,0.2,0c0.2,0,0.2,0.1,0.2,0.2c0,0.2,0,0.4,0,0.7c0,0.2-0.1,0.2-0.2,0.3c-0.9,0.2-1.9,0.4-2.9,0.1c-1-0.3-1.5-1-1.6-2
			c-0.1-0.6-0.1-1.2,0-1.8c0.2-1.1,1-1.8,2.1-1.9c0.3,0,0.6,0,0.9,0c0.9,0.2,1.5,0.8,1.8,1.7c0.1,0.5,0.1,1,0.1,1.5
			c0,0.2-0.1,0.2-0.3,0.2C136.4,54.1,136,54.1,135.5,54.1z M134.7,53.1c0.2,0,0.3,0,0.5,0c0.5,0,0.5,0.1,0.4-0.5
			c-0.1-0.3-0.3-0.6-0.6-0.7c-0.6-0.1-1.2,0.3-1.2,0.9c0,0.2,0,0.2,0.2,0.2C134.3,53.1,134.5,53.1,134.7,53.1z"/>
		<path class="st0" d="M94.6,53.6c0,0.5,0,0.9-0.2,1.4c-0.2,0.8-0.8,1.2-1.5,1.4c-0.6,0.2-1.3,0.2-1.9-0.1c-0.7-0.3-1.1-0.7-1.3-1.4
			c-0.2-0.9-0.2-1.7,0-2.6c0.2-0.9,1-1.6,2-1.6c0.4,0,0.9,0,1.3,0.1c0.9,0.3,1.4,1,1.5,1.9C94.6,53,94.6,53.3,94.6,53.6z M93,53.6
			c0-0.3,0-0.6-0.1-0.8c-0.1-0.5-0.4-0.7-0.9-0.7c-0.4,0-0.7,0.3-0.9,0.7c-0.1,0.4,0,0.8-0.1,1.3c0,0.2,0,0.4,0.1,0.5
			c0.1,0.3,0.2,0.5,0.6,0.6c0.6,0.2,1-0.1,1.1-0.7C93,54.2,93,53.9,93,53.6z"/>
		<path class="st0" d="M47.8,53.7c0,0.4,0,0.7-0.1,1.1c-0.2,0.9-0.8,1.5-1.8,1.7c-0.7,0.1-1.3,0.1-1.9-0.2c-0.7-0.4-1.1-1-1.2-1.8
			c-0.1-0.7-0.1-1.3,0-2c0.2-1,1-1.7,2.1-1.8c0.6,0,1.1,0,1.6,0.3c0.8,0.4,1.1,1.2,1.2,2C47.8,53.2,47.8,53.4,47.8,53.7z M46.3,53.5
			c0-0.3,0-0.6-0.1-0.9c-0.1-0.4-0.4-0.6-0.8-0.6c-0.5,0-0.7,0.2-0.9,0.6c0,0.2-0.1,0.3-0.1,0.5c0,0.3,0,0.7,0,1
			c0,0.1,0,0.3,0.1,0.4c0.1,0.4,0.4,0.6,0.8,0.7c0.4,0,0.7-0.2,0.8-0.6c0.1-0.2,0.1-0.3,0.1-0.5C46.3,54,46.3,53.8,46.3,53.5z"/>
		<path class="st0" d="M15.6,53.6c0-0.5,0-0.9,0.2-1.4c0.3-0.9,1-1.4,2-1.5c0.4,0,0.7,0,1.1,0.1c1.1,0.2,1.7,1,1.8,2.1
			c0.1,0.5,0.1,1,0,1.5c-0.1,1.2-0.9,2.1-2.1,2.2c-0.3,0-0.7,0-1-0.1c-0.9-0.2-1.5-0.8-1.7-1.7C15.6,54.3,15.6,54,15.6,53.6z
			 M17.2,53.6c0,0.3,0,0.6,0.1,0.9c0.1,0.5,0.4,0.7,0.9,0.7c0.4,0,0.8-0.3,0.8-0.7c0.1-0.6,0.1-1.2,0-1.8c-0.1-0.4-0.4-0.7-0.8-0.7
			c-0.5,0-0.7,0.2-0.9,0.6C17.2,53,17.2,53.3,17.2,53.6z"/>
		<path class="st0" d="M5.4,52.7c0-0.6,0-1.2,0.1-1.7c0.3-1.2,1-1.8,2.2-2c0.7-0.1,1.3-0.1,2,0.1c0.3,0.1,0.3,0.1,0.3,0.4
			c0,0.3,0,0.5,0,0.8c0,0.2,0,0.2-0.2,0.2c-0.2,0-0.4,0-0.6,0c-0.3,0-0.6,0-1,0c-0.4,0-0.7,0.2-0.9,0.6c-0.1,0.2-0.2,0.5-0.2,0.8
			c0,0.6,0,1.3,0,1.9c0,0.2,0,0.4,0.1,0.6c0.2,0.5,0.5,0.8,1,0.8c0.4,0,0.8,0,1.3-0.1c0,0,0.1,0,0.1,0c0.4,0,0.4,0,0.4,0.4
			c0,0.3,0,0.5,0,0.8c0,0.1,0,0.2-0.2,0.2c-1.1,0.2-2.1,0.3-3.1-0.2c-0.8-0.4-1.1-1.1-1.3-1.9C5.3,53.7,5.4,53.2,5.4,52.7z"/>
		<path class="st0" d="M39.2,56.5c-0.6,0-1.1-0.1-1.6-0.2c-0.3-0.1-0.3-0.1-0.3-0.4c0-0.2,0-0.4,0-0.5c0-0.2,0.1-0.3,0.3-0.3
			c0.6,0.1,1.2,0.1,1.8,0.1c0.2,0,0.3-0.1,0.4-0.3c0.1-0.2,0-0.3-0.1-0.4c-0.1-0.1-0.2-0.1-0.2-0.1c-0.4-0.2-0.7-0.4-1.1-0.6
			c-0.3-0.1-0.5-0.3-0.7-0.5c-0.5-0.5-0.5-1.6,0.1-2.1c0.3-0.2,0.6-0.4,1-0.4c0.7-0.1,1.5,0,2.2,0.1c0.3,0.1,0.3,0.1,0.3,0.4
			c0,0.2,0,0.4,0,0.6c0,0.1-0.1,0.2-0.2,0.2c-0.1,0-0.3,0-0.4,0c-0.5,0-0.9-0.1-1.4-0.1c-0.1,0-0.3,0-0.3,0.2c0,0.2,0,0.3,0.2,0.4
			c0.3,0.2,0.7,0.4,1,0.6c0.2,0.1,0.5,0.3,0.7,0.5c0.9,0.6,0.8,2.2-0.3,2.7C40.1,56.5,39.7,56.5,39.2,56.5z"/>
		<path class="st0" d="M140.5,56.5c-0.5,0-1.1-0.1-1.6-0.2c-0.3-0.1-0.3-0.1-0.3-0.4c0-0.2,0-0.3,0-0.5c0-0.3,0.1-0.3,0.3-0.3
			c0.6,0.1,1.2,0.1,1.7,0.1c0.3,0,0.4-0.1,0.5-0.3c0-0.2,0-0.3-0.2-0.5c-0.4-0.2-0.8-0.5-1.2-0.7c-0.2-0.1-0.4-0.2-0.6-0.4
			c-0.4-0.4-0.6-0.9-0.5-1.4c0.1-0.6,0.4-0.9,0.9-1.1c0.4-0.2,0.9-0.2,1.4-0.2c0.4,0,0.9,0.1,1.3,0.2c0.4,0.1,0.4,0.1,0.4,0.5
			c0,0.2,0,0.4,0,0.5c0,0.2-0.1,0.2-0.2,0.2c-0.2,0-0.4,0-0.6-0.1c-0.3,0-0.6,0-0.9-0.1c-0.1,0-0.3,0-0.4,0
			c-0.2,0.1-0.3,0.3-0.1,0.5c0.1,0.1,0.2,0.1,0.3,0.2c0.4,0.2,0.7,0.4,1.1,0.6c0.2,0.1,0.3,0.2,0.5,0.3c0.9,0.7,0.8,2.3-0.4,2.7
			C141.4,56.5,141,56.5,140.5,56.5z"/>
		<path class="st0" d="M118.6,56.5c-0.5,0-1-0.1-1.5-0.2c-0.3-0.1-0.4-0.1-0.4-0.5c0-0.2,0-0.3,0-0.5c0-0.3,0-0.3,0.3-0.3
			c0.6,0,1.2,0.1,1.7,0.1c0.2,0,0.3,0,0.4-0.1c0.1-0.2,0.1-0.4-0.1-0.5c-0.1-0.1-0.3-0.2-0.5-0.3c-0.4-0.2-0.8-0.5-1.2-0.7
			c-0.7-0.5-0.9-1.6-0.4-2.2c0.2-0.3,0.5-0.4,0.9-0.5c0.9-0.2,1.8-0.1,2.6,0.1c0.2,0,0.2,0.1,0.2,0.3c0,0.2,0,0.4,0,0.7
			c0,0.2-0.1,0.3-0.3,0.3c-0.4,0-0.9-0.1-1.3-0.1c-0.2,0-0.4,0-0.6,0c-0.2,0.1-0.3,0.3-0.2,0.4c0.1,0.1,0.2,0.2,0.3,0.2
			c0.4,0.2,0.8,0.4,1.1,0.6c0.2,0.1,0.3,0.2,0.5,0.3c0.5,0.4,0.7,1,0.5,1.6c-0.2,0.7-0.7,1-1.3,1.2
			C119.2,56.5,118.9,56.5,118.6,56.5z"/>
		<path class="st0" d="M146.1,56.5c-0.6,0-1.1-0.1-1.5-0.2c-0.3-0.1-0.4-0.1-0.4-0.5c0-0.2,0-0.3,0-0.5c0-0.3,0-0.3,0.3-0.3
			c0.6,0,1.1,0.1,1.7,0.1c0.1,0,0.2,0,0.2,0c0.3-0.1,0.4-0.3,0.2-0.6c-0.1-0.1-0.2-0.2-0.3-0.2c-0.4-0.2-0.9-0.5-1.3-0.8
			c-0.5-0.3-0.9-0.7-0.9-1.3c-0.1-0.8,0.2-1.3,1-1.6c0.4-0.1,0.8-0.1,1.2-0.1c0.4,0,0.9,0.1,1.3,0.2c0.4,0.1,0.4,0.1,0.4,0.6
			c0,0.1,0,0.3,0,0.4c0,0.2-0.1,0.3-0.3,0.2c-0.4,0-0.9-0.1-1.3-0.1c-0.2,0-0.4,0-0.6,0c-0.2,0.1-0.3,0.3-0.2,0.4
			c0.1,0.1,0.2,0.2,0.3,0.2c0.4,0.2,0.8,0.5,1.2,0.7c0.2,0.1,0.4,0.3,0.6,0.4c0.7,0.7,0.5,2.1-0.4,2.5
			C147,56.5,146.5,56.5,146.1,56.5z"/>
		<path class="st0" d="M85.9,54.1c0-0.7,0-1.3,0-2c0-0.2-0.1-0.2-0.2-0.3c-0.2,0-0.3,0-0.5-0.1c-0.3-0.1-0.3-0.1-0.3-0.4
			c0-0.1,0-0.3,0-0.4c0-0.2,0.1-0.3,0.2-0.3c0.2,0,0.4,0,0.6,0c0.1,0,0.2,0,0.2-0.2c0-0.1,0-0.3,0-0.4c0-0.2,0-0.4,0.1-0.6
			c0.1-0.5,0.5-0.8,1.2-0.9c0.4,0,0.7,0,1.1,0c0.2,0,0.3,0.1,0.3,0.3c0,0.2,0,0.4,0,0.6c0,0.2-0.1,0.2-0.2,0.2c-0.2,0-0.4,0-0.6,0
			c-0.1,0-0.2,0.1-0.2,0.2c0,0,0,0,0,0c0,0.2-0.1,0.4,0,0.6c0.1,0.1,0.3,0,0.5,0c0.5,0,0.5,0,0.5,0.5c0,0.1,0,0.3,0,0.4
			c0,0.2-0.1,0.3-0.3,0.3c-0.2,0-0.4,0-0.5,0c-0.2,0-0.2,0.1-0.2,0.2c0,0.7,0,1.3,0,2c0,0.7,0,1.3,0,2c0,0.3,0,0.4-0.4,0.4
			c-0.3,0-0.6,0-0.9,0c-0.2,0-0.3,0-0.3-0.3C85.9,55.5,85.9,54.8,85.9,54.1z"/>
		<path class="st0" d="M61.8,53.6c0,0.3,0,0.6,0,0.9c0.1,0.5,0.4,0.7,0.9,0.7c0.3,0,0.6,0,0.8-0.1c0.1,0,0.2,0,0.3,0
			c0.1,0,0.2,0.1,0.2,0.2c0,0.3,0,0.5,0,0.8c0,0.1-0.1,0.2-0.2,0.2c-0.8,0.2-1.6,0.3-2.4-0.1c-0.6-0.3-1-0.8-1.1-1.5
			c-0.1-0.3-0.1-0.5-0.1-0.8c0-0.5,0-1.1,0.1-1.6c0.2-1,1-1.7,2-1.8c0.5,0,1,0,1.5,0.1c0.3,0.1,0.3,0.1,0.3,0.3c0,0.2,0,0.4,0,0.7
			c0,0.2,0,0.3-0.3,0.3c-0.4,0-0.7,0-1.1,0c-0.6,0-0.9,0.3-0.9,0.8C61.8,53.1,61.8,53.3,61.8,53.6z"/>
		<path class="st0" d="M97.7,51.1c0.1,0,0.2-0.1,0.3-0.2c0.3-0.2,0.6-0.3,1-0.3c0.2,0,0.3,0.1,0.3,0.2c0,0.3,0,0.5,0,0.8
			c0,0.3-0.1,0.3-0.3,0.3c-0.3,0-0.6,0.1-1,0.2c-0.2,0.1-0.2,0.2-0.2,0.4c0,1.1,0,2.3,0,3.4c0,0.1,0,0.2,0,0.2
			c0,0.1-0.1,0.2-0.2,0.2c-0.4,0-0.7,0-1.1,0c-0.2,0-0.3-0.1-0.3-0.3c0-0.1,0-0.1,0-0.2c0-1.6,0-3.2,0-4.8c0,0,0-0.1,0-0.1
			c0-0.2,0-0.3,0.3-0.3c0.3,0,0.6,0,0.9,0C97.7,50.8,97.7,50.8,97.7,51.1z"/>
		<path class="st0" d="M57.6,51.1c0.4-0.3,0.8-0.4,1.2-0.4c0.2,0,0.3,0,0.3,0.2c0,0.3,0,0.5,0,0.8c0,0.2,0,0.3-0.3,0.3
			c-0.4,0-0.7,0.1-1,0.2c-0.2,0.1-0.2,0.2-0.2,0.4c0,1.1,0,2.3,0,3.4c0,0.5,0,0.5-0.5,0.5c-0.2,0-0.5,0-0.7,0
			c-0.3,0-0.4-0.1-0.4-0.4c0-0.9,0-1.9,0-2.8c0-0.7,0-1.4,0-2.1c0-0.4,0-0.4,0.4-0.4c0.3,0,0.5,0,0.8,0
			C57.6,50.8,57.6,50.8,57.6,51.1z"/>
		<path class="st0" d="M13.1,51.1c0.4-0.3,0.8-0.4,1.2-0.4c0.2,0,0.3,0,0.3,0.2c0,0.3,0,0.5,0,0.8c0,0.2,0,0.3-0.3,0.3
			c-0.4,0-0.7,0.1-1,0.2c-0.2,0.1-0.2,0.2-0.2,0.3c0,1.1,0,2.2,0,3.4c0,0.5,0,0.5-0.6,0.5c-0.2,0-0.5,0-0.7,0
			c-0.3,0-0.4-0.1-0.4-0.4c0-0.8,0-1.5,0-2.3c0-0.9,0-1.7,0-2.6c0-0.1,0-0.2,0-0.3c0-0.1,0.1-0.2,0.2-0.2c0.4,0,0.8,0,1.2,0
			C13,50.8,13.1,50.8,13.1,51.1z"/>
		<path class="st0" d="M65.7,53.6c0-0.8,0-1.7,0-2.5c0-0.3,0-0.3,0.3-0.3c0.3,0,0.6,0,1,0c0.3,0,0.3,0,0.3,0.3c0,0.7,0,1.4,0,2.1
			c0,1,0,1.9,0,2.9c0,0.4,0,0.4-0.4,0.4c-0.3,0-0.5,0-0.8,0c-0.3,0-0.4,0-0.4-0.4C65.7,55.3,65.7,54.4,65.7,53.6z"/>
		<path class="st0" d="M124,53.6c0,0.8,0,1.6,0,2.5c0,0.4,0,0.4-0.4,0.4c-0.3,0-0.6,0-0.9,0c-0.2,0-0.3-0.1-0.3-0.3
			c0-0.1,0-0.1,0-0.2c0-1.6,0-3.2,0-4.8c0-0.1,0-0.1,0-0.2c0-0.2,0.1-0.3,0.3-0.3c0.3,0,0.7,0,1,0c0.2,0,0.3,0,0.3,0.3
			C124,51.9,124,52.8,124,53.6z"/>
		<path class="st0" d="M149.9,55.6c0-0.2,0-0.4,0-0.5c0-0.1,0.1-0.2,0.2-0.2c0.4,0,0.7,0,1.1,0c0.2,0,0.2,0.1,0.2,0.3
			c0,0.4,0,0.7,0,1.1c0,0.2-0.1,0.3-0.3,0.3c-0.3,0-0.7,0-1,0c-0.2,0-0.2,0-0.3-0.3C149.9,56,149.9,55.8,149.9,55.6z"/>
		<path class="st0" d="M66.5,48.8c0.2,0,0.4,0,0.6,0c0.2,0,0.2,0.1,0.2,0.2c0,0.3,0,0.5,0,0.8c0,0.2-0.1,0.3-0.3,0.3
			c-0.4,0-0.8,0-1.2,0c-0.2,0-0.3-0.1-0.3-0.3c0-0.3,0-0.5,0-0.8c0-0.2,0.1-0.2,0.3-0.3C66.1,48.8,66.3,48.8,66.5,48.8z"/>
		<path class="st0" d="M123.2,48.8c0.2,0,0.4,0,0.6,0c0.2,0,0.3,0.1,0.3,0.2c0,0.3,0,0.5,0,0.8c0,0.2-0.1,0.3-0.3,0.3
			c-0.4,0-0.8,0-1.1,0c-0.2,0-0.3-0.1-0.3-0.3c0-0.3,0-0.5,0-0.8c0-0.2,0.1-0.2,0.3-0.2C122.8,48.8,123,48.8,123.2,48.8z"/>
	</g>
</g>
</svg>
